<svg xmlns="http://www.w3.org/2000/svg" xmlns:xlink="http://www.w3.org/1999/xlink" viewBox="0,0,256,256" width="30px" height="30px" fill-rule="nonzero"><g transform=""><g fill="none" fill-rule="nonzero" stroke="none" stroke-width="1" stroke-linecap="butt" stroke-linejoin="miter" stroke-miterlimit="10" stroke-dasharray="" stroke-dashoffset="0" font-family="none" font-weight="none" font-size="none" text-anchor="none" style="mix-blend-mode: normal"><g transform="scale(8.53333,8.53333)"><path d="M17.5,15c0,1.382 -1.118,2.5 -2.5,2.5c-1.382,0 -2.5,-1.118 -2.5,-2.5c0,-1.382 1.118,-2.5 2.5,-2.5c1.382,0 2.5,1.118 2.5,2.5z" fill="#8bb7f0"></path><path d="M15,18c-1.654,0 -3,-1.346 -3,-3c0,-1.654 1.346,-3 3,-3c1.654,0 3,1.346 3,3c0,1.654 -1.346,3 -3,3zM15,13c-1.103,0 -2,0.897 -2,2c0,1.103 0.897,2 2,2c1.103,0 2,-0.897 2,-2c0,-1.103 -0.897,-2 -2,-2z" fill="#4e7ab5"></path><g><path d="M29.5,15c0,-2.152 -2.095,-3.993 -5.455,-5.166c0.748,-3.603 0.877,-6.337 -1.688,-7.856c-0.535,-0.316 -1.145,-0.477 -1.812,-0.477c-1.647,0 -3.589,1.002 -5.544,2.746c-1.956,-1.746 -3.899,-2.749 -5.547,-2.749c-0.667,0 -1.276,0.161 -1.811,0.477c-1.625,0.964 -2.672,3.117 -1.688,7.859c-3.36,1.174 -5.455,3.014 -5.455,5.166c0,2.152 2.095,3.992 5.455,5.166c-0.779,3.755 -0.724,6.428 1.689,7.859c0.535,0.316 1.145,0.477 1.812,0.477c1.647,0 3.59,-1.002 5.545,-2.748c1.955,1.744 3.897,2.745 5.544,2.745h0.001c0.667,0 1.276,-0.161 1.812,-0.477c2.39,-1.416 2.49,-3.994 1.688,-7.856c3.359,-1.173 5.454,-3.014 5.454,-5.166zM21.337,3.699c1.513,0.896 1.325,2.682 0.767,5.563c-1.002,-0.242 -2.087,-0.428 -3.231,-0.56c-0.787,-1.123 -1.605,-2.143 -2.435,-3.037c1.618,-1.42 3.086,-2.163 4.107,-2.163c0.309,-0.001 0.567,0.064 0.792,0.197zM21.2,17.474c0.157,0.443 0.294,0.874 0.419,1.298c-0.416,0.102 -0.849,0.195 -1.298,0.278c0.135,-0.227 0.271,-0.452 0.402,-0.686c0.163,-0.293 0.32,-0.592 0.477,-0.89zM18.979,17.382c-0.403,0.716 -0.818,1.383 -1.236,2.018c-0.878,0.078 -1.793,0.123 -2.743,0.123c-0.952,0 -1.87,-0.045 -2.749,-0.123c-0.418,-0.633 -0.83,-1.305 -1.232,-2.018c-0.452,-0.803 -0.856,-1.6 -1.216,-2.382c0.359,-0.782 0.764,-1.579 1.216,-2.382c0.402,-0.713 0.814,-1.385 1.233,-2.018c0.88,-0.078 1.797,-0.123 2.749,-0.123c0.952,0 1.868,0.045 2.748,0.123c0.418,0.633 0.83,1.305 1.232,2.018c0.452,0.803 0.857,1.6 1.216,2.382c-0.361,0.782 -0.766,1.579 -1.218,2.382zM15.001,22.936c-0.408,-0.44 -0.819,-0.922 -1.231,-1.439c0.406,0.014 0.813,0.026 1.23,0.026c0.417,0 0.825,-0.012 1.231,-0.026c-0.412,0.519 -0.822,0.999 -1.23,1.439zM9.276,18.363c0.131,0.233 0.267,0.458 0.402,0.685c-0.449,-0.083 -0.881,-0.176 -1.297,-0.278c0.125,-0.423 0.262,-0.854 0.418,-1.297c0.157,0.3 0.313,0.598 0.477,0.89zM8.799,12.526c-0.156,-0.442 -0.293,-0.873 -0.418,-1.297c0.416,-0.101 0.848,-0.194 1.298,-0.278c-0.135,0.227 -0.271,0.452 -0.402,0.685c-0.165,0.293 -0.321,0.591 -0.478,0.89zM15.001,7.066c0.407,0.439 0.818,0.921 1.228,1.438c-0.406,-0.015 -0.813,-0.027 -1.229,-0.027c-0.416,0 -0.823,0.012 -1.229,0.026c0.411,-0.517 0.822,-0.998 1.23,-1.437zM20.722,11.637c-0.131,-0.234 -0.267,-0.458 -0.402,-0.686c0.45,0.083 0.882,0.176 1.299,0.278c-0.125,0.424 -0.262,0.855 -0.419,1.298c-0.157,-0.299 -0.314,-0.598 -0.478,-0.89zM8.663,3.696c0.225,-0.133 0.483,-0.198 0.791,-0.198c1.022,0 2.491,0.744 4.11,2.165c-0.83,0.894 -1.649,1.914 -2.437,3.038c-1.144,0.133 -2.229,0.319 -3.231,0.561c-0.781,-4.03 0.18,-5.217 0.767,-5.566zM2.5,15c0,-1.128 1.501,-2.322 3.961,-3.202c0.315,1.057 0.706,2.132 1.163,3.202c-0.456,1.07 -0.847,2.145 -1.163,3.202c-2.46,-0.88 -3.961,-2.074 -3.961,-3.202zM8.663,26.304c-1.363,-0.808 -1.355,-2.531 -0.767,-5.566c1.002,0.242 2.086,0.428 3.23,0.56c0.789,1.126 1.61,2.148 2.442,3.044c-2.094,1.839 -3.938,2.535 -4.905,1.962zM21.337,26.301c-0.225,0.133 -0.483,0.198 -0.792,0.198c-1.022,0 -2.49,-0.743 -4.108,-2.162c0.83,-0.894 1.648,-1.914 2.436,-3.038c1.144,-0.133 2.229,-0.318 3.231,-0.56c0.608,3.142 0.574,4.768 -0.767,5.562zM23.538,18.202c-0.316,-1.056 -0.707,-2.132 -1.163,-3.202c0.457,-1.07 0.848,-2.146 1.164,-3.202c2.46,0.88 3.961,2.074 3.961,3.202c0,1.128 -1.501,2.322 -3.962,3.202z" fill="#8bb7f0"></path><path d="M9.455,29.001c-0.758,0 -1.452,-0.184 -2.066,-0.547c-2.36,-1.399 -2.775,-3.831 -2.007,-7.965c-3.427,-1.291 -5.382,-3.277 -5.382,-5.489c0,-2.212 1.955,-4.198 5.382,-5.49c-0.954,-5.133 0.415,-7.021 2.007,-7.965c1.944,-1.151 4.709,-0.434 7.612,2.038c2.901,-2.47 5.661,-3.187 7.61,-2.036c2.51,1.486 2.747,3.982 2.007,7.962c3.427,1.293 5.382,3.28 5.382,5.491c0,2.211 -1.955,4.198 -5.383,5.49c0.789,4.243 0.334,6.577 -2.006,7.962c-1.949,1.151 -4.709,0.434 -7.611,-2.035c-1.987,1.692 -3.897,2.584 -5.545,2.584zM9.454,1.999c-0.576,0 -1.1,0.137 -1.556,0.407c-1.842,1.092 -2.145,3.997 -1.454,7.326l0.09,0.429l-0.414,0.145c-3.254,1.136 -5.12,2.847 -5.12,4.694c0,1.847 1.866,3.558 5.12,4.694l0.414,0.145l-0.09,0.429c-0.486,2.342 -1.175,5.768 1.454,7.327c1.622,0.959 4.134,0.14 6.769,-2.213l0.333,-0.298l0.333,0.297c2.636,2.351 5.147,3.168 6.769,2.211c2.606,-1.544 1.962,-4.875 1.453,-7.324l-0.09,-0.429l0.414,-0.145c3.255,-1.136 5.121,-2.847 5.121,-4.694c0,-1.847 -1.866,-3.558 -5.12,-4.694l-0.414,-0.145l0.09,-0.429c0.455,-2.189 1.328,-5.677 -1.454,-7.324c-1.621,-0.959 -4.133,-0.14 -6.768,2.212l-0.333,0.297l-0.333,-0.297c-1.894,-1.69 -3.745,-2.621 -5.214,-2.621zM9.455,26.999c-0.397,0 -0.75,-0.089 -1.047,-0.265c-1.57,-0.931 -1.647,-2.764 -1.004,-6.091l0.1,-0.514l0.509,0.123c0.961,0.232 2.027,0.417 3.17,0.549l0.223,0.026l0.129,0.184c0.775,1.105 1.583,2.111 2.399,2.99l0.35,0.376l-0.386,0.339c-1.675,1.473 -3.253,2.283 -4.443,2.283zM8.295,21.343c-0.488,2.985 -0.297,3.985 0.623,4.531c0.141,0.083 0.321,0.125 0.537,0.125c0.851,0 2.071,-0.616 3.395,-1.703c-0.682,-0.766 -1.354,-1.613 -2.005,-2.527c-0.901,-0.111 -1.755,-0.254 -2.55,-0.426zM20.545,26.999c-1.181,0 -2.757,-0.812 -4.438,-2.286l-0.386,-0.339l0.349,-0.377c0.816,-0.88 1.621,-1.884 2.394,-2.985l0.129,-0.184l0.223,-0.026c1.144,-0.133 2.211,-0.318 3.171,-0.55l0.509,-0.123l0.1,0.514c0.665,3.435 0.545,5.171 -1.003,6.088c-0.306,0.181 -0.648,0.268 -1.048,0.268zM17.155,24.291c1.672,1.374 3.211,2.005 3.927,1.581c0.902,-0.534 1.128,-1.434 0.622,-4.528c-0.795,0.172 -1.649,0.315 -2.551,0.426c-0.648,0.91 -1.318,1.755 -1.998,2.521zM15.001,23.671l-0.366,-0.395c-0.409,-0.441 -0.832,-0.935 -1.256,-1.468l-0.673,-0.847l1.081,0.037c0.801,0.026 1.627,0.027 2.426,0l1.08,-0.038l-0.671,0.848c-0.413,0.523 -0.835,1.017 -1.254,1.469zM15,20.023c-0.922,0 -1.861,-0.042 -2.794,-0.125l-0.239,-0.021l-0.133,-0.201c-0.44,-0.667 -0.861,-1.355 -1.251,-2.048c-0.444,-0.789 -0.859,-1.602 -1.234,-2.418l-0.096,-0.21l0.096,-0.208c0.375,-0.816 0.79,-1.63 1.234,-2.419c0.388,-0.689 0.809,-1.378 1.251,-2.047l0.133,-0.201l0.239,-0.021c1.862,-0.166 3.716,-0.167 5.586,0l0.24,0.021l0.133,0.201c0.438,0.664 0.859,1.354 1.25,2.048c0.444,0.789 0.859,1.602 1.234,2.418l0.096,0.208l-0.096,0.208c-0.375,0.816 -0.79,1.63 -1.234,2.419c-0.379,0.672 -0.789,1.342 -1.255,2.048l-0.133,0.201l-0.24,0.021c-0.928,0.084 -1.866,0.126 -2.787,0.126zM12.536,18.922c1.646,0.134 3.281,0.134 4.922,0.001c0.398,-0.612 0.755,-1.199 1.086,-1.786c0.393,-0.698 0.763,-1.416 1.101,-2.137c-0.338,-0.721 -0.708,-1.439 -1.101,-2.136c-0.34,-0.604 -0.703,-1.204 -1.081,-1.786c-1.652,-0.134 -3.282,-0.134 -4.927,0c-0.381,0.586 -0.744,1.186 -1.082,1.785c-0.393,0.698 -0.763,1.416 -1.101,2.137c0.338,0.721 0.708,1.439 1.101,2.136c0.339,0.602 0.702,1.202 1.082,1.786zM10.665,19.741l-1.079,-0.2c-0.458,-0.085 -0.898,-0.18 -1.323,-0.284l-0.51,-0.125l0.148,-0.503c0.127,-0.432 0.267,-0.871 0.426,-1.322l0.382,-1.082l0.533,1.017c0.153,0.294 0.309,0.588 0.47,0.876c0.092,0.162 0.186,0.321 0.279,0.479zM19.327,19.74l0.642,-1.08c0.106,-0.18 0.213,-0.359 0.317,-0.543c0.159,-0.282 0.31,-0.569 0.46,-0.857l0.531,-1.014l0.393,1.06c0.161,0.452 0.301,0.892 0.428,1.323l0.148,0.503l-0.51,0.125c-0.425,0.104 -0.866,0.199 -1.326,0.284zM23.21,18.851l-0.151,-0.505c-0.307,-1.029 -0.691,-2.089 -1.144,-3.149l-0.084,-0.197l0.084,-0.196c0.448,-1.048 0.833,-2.108 1.146,-3.149l0.15,-0.504l0.496,0.177c2.729,0.975 4.293,2.313 4.293,3.672c0,1.358 -1.565,2.697 -4.294,3.673zM22.918,15c0.357,0.855 0.673,1.709 0.941,2.547c2.307,-0.913 3.141,-1.928 3.141,-2.547c0,-0.619 -0.834,-1.634 -3.141,-2.547c-0.27,0.846 -0.586,1.7 -0.941,2.547zM6.789,18.85l-0.496,-0.178c-2.729,-0.975 -4.293,-2.313 -4.293,-3.672c0,-1.359 1.564,-2.697 4.293,-3.672l0.496,-0.178l0.151,0.505c0.31,1.038 0.694,2.097 1.144,3.148l0.084,0.197l-0.084,0.196c-0.449,1.052 -0.834,2.111 -1.144,3.148zM6.14,12.453c-2.306,0.913 -3.14,1.928 -3.14,2.547c0,0.619 0.834,1.634 3.14,2.547c0.269,-0.844 0.585,-1.697 0.941,-2.547c-0.356,-0.85 -0.672,-1.703 -0.941,-2.547zM8.709,13.774l-0.382,-1.082c-0.159,-0.451 -0.299,-0.89 -0.426,-1.322l-0.148,-0.503l0.51,-0.125c0.425,-0.104 0.865,-0.198 1.325,-0.284l1.082,-0.201l-0.654,1.105c-0.103,0.171 -0.204,0.342 -0.304,0.519c-0.161,0.287 -0.316,0.581 -0.47,0.875zM21.287,13.772l-0.531,-1.014c-0.16,-0.306 -0.311,-0.594 -0.47,-0.876c-0.104,-0.184 -0.211,-0.363 -0.317,-0.543l-0.642,-1.08l1.083,0.2c0.46,0.085 0.901,0.18 1.326,0.284l0.51,0.125l-0.148,0.503c-0.127,0.432 -0.267,0.872 -0.428,1.323zM7.504,9.871l-0.1,-0.514c-0.835,-4.322 0.208,-5.619 1.004,-6.091c1.208,-0.713 3.235,0.047 5.485,2.022l0.386,0.339l-0.35,0.377c-0.814,0.877 -1.62,1.882 -2.394,2.985l-0.129,0.184l-0.223,0.026c-1.144,0.132 -2.21,0.317 -3.172,0.549zM9.454,3.999c-0.218,0 -0.389,0.041 -0.536,0.128c-0.173,0.102 -1.277,0.535 -0.623,4.53c0.796,-0.173 1.651,-0.315 2.552,-0.426c0.648,-0.912 1.319,-1.757 1.999,-2.521c-1.316,-1.079 -2.562,-1.711 -3.392,-1.711zM22.495,9.871l-0.509,-0.123c-0.96,-0.232 -2.027,-0.417 -3.171,-0.55l-0.223,-0.026l-0.129,-0.184c-0.776,-1.106 -1.581,-2.11 -2.393,-2.984l-0.351,-0.377l0.387,-0.339c2.251,-1.975 4.279,-2.732 5.484,-2.02c1.721,1.019 1.618,2.915 1.003,6.088zM19.153,8.231c0.901,0.111 1.756,0.254 2.551,0.426c0.464,-2.827 0.445,-3.897 -0.622,-4.528c-0.717,-0.424 -2.254,0.207 -3.927,1.582c0.678,0.761 1.348,1.606 1.998,2.52zM12.706,9.039l0.674,-0.848c0.429,-0.538 0.851,-1.031 1.255,-1.466l0.367,-0.396l0.366,0.396c0.414,0.448 0.835,0.941 1.252,1.466l0.673,0.847l-1.081,-0.037c-0.801,-0.026 -1.623,-0.026 -2.424,0z" fill="#4e7ab5"></path></g></g></g></g></svg>